<svg width="200" height="200" viewBox="0 0 200 200" fill="none" xmlns="http://www.w3.org/2000/svg">
  <circle cx="100" cy="100" r="95" stroke="#C8963E" stroke-width="2"/>
  <circle cx="100" cy="100" r="88" stroke="#C8963E" stroke-width="0.5" stroke-dasharray="4 4"/>
  <path d="M70 140C70 140 80 150 100 150C120 150 130 140 130 140" stroke="#C8963E" stroke-width="2" stroke-linecap="round"/>
  <path d="M60 80C60 65 75 60 100 60C125 60 140 65 140 80V110C140 125 125 135 100 135C75 135 60 125 60 110V80Z" fill="#7B3B2A" stroke="#C8963E" stroke-width="2"/>
  <path d="M140 85C140 85 155 85 155 100C155 115 140 115 140 115" stroke="#C8963E" stroke-width="2" stroke-linecap="round"/>
  <path d="M85 50C85 50 90 40 100 40C110 40 115 50 115 50" stroke="#C8963E" stroke-width="1.5" stroke-linecap="round"/>
  <path d="M75 55C75 55 80 48 85 48" stroke="#C8963E" stroke-width="1" stroke-linecap="round"/>
  <path d="M115 48C115 48 120 55 125 55" stroke="#C8963E" stroke-width="1" stroke-linecap="round"/>
  <text x="100" y="105" text-anchor="middle" fill="#FDF6EC" font-family="Playfair Display, serif" font-weight="bold" font-size="20">MONO</text>
  <text x="100" y="85" text-anchor="middle" fill="#C8963E" font-family="Inter, sans-serif" font-weight="800" font-size="10" letter-spacing="0.2em">CAFE</text>
</svg>
